<svg width="55" height="55" viewBox="0 0 55 55" fill="none" xmlns="http://www.w3.org/2000/svg">
<circle cx="27.5" cy="27.5" r="27.5" fill="#FBFBFB" fill-opacity="0.9"/>
<path d="M31.4813 32.0847L31.4805 32.0856C29.9823 33.6341 28.9372 34.7056 28.2527 35.3943C27.9185 35.7306 27.6743 35.9714 27.5071 36.1306C27.4784 36.1055 27.4466 36.0769 27.4114 36.0446C26.9248 35.5991 26.0142 34.6597 24.1332 32.7193C23.9612 32.5419 23.7812 32.3562 23.5926 32.1617C19.2618 27.6949 19.0692 27.456 18.5844 26.5843C17.2572 24.1973 17.5522 21.7034 19.1857 20.0859C19.9212 19.3595 20.7614 18.929 21.7367 18.7704C21.7377 18.7702 21.74 18.7699 21.7436 18.7695L21.7651 18.7672C21.7835 18.7655 21.8072 18.7636 21.836 18.7618C21.894 18.7581 21.9657 18.7551 22.0468 18.753C22.2094 18.7489 22.397 18.7489 22.5669 18.7536C23.3482 18.7759 23.9514 18.9299 24.714 19.3089C25.3915 19.6487 25.9106 20.0071 26.5278 20.5668C26.5283 20.5672 26.5288 20.5677 26.5293 20.5682L27.0225 21.0204L27.5474 21.5017L28.0552 21.0023L28.3801 20.6828C28.3805 20.6824 28.381 20.682 28.3814 20.6816C29.3777 19.7117 30.6539 19.0494 31.8043 18.8674L31.805 18.8673C32.001 18.8361 32.379 18.8254 32.7946 18.8451C33.2161 18.8651 33.5658 18.9112 33.718 18.9549L33.7212 18.9558C34.5405 19.1868 35.1876 19.5658 35.7867 20.1606C36.246 20.6202 36.5491 21.0491 36.791 21.5737L31.4813 32.0847ZM31.4813 32.0847C32.6211 30.9104 33.6838 29.8055 34.4782 28.9718M31.4813 32.0847L34.4782 28.9718M34.4782 28.9718C34.8756 28.5547 35.2049 28.2065 35.4429 27.9519M34.4782 28.9718L35.4429 27.9519M35.4429 27.9519C35.5621 27.8244 35.6568 27.7219 35.7252 27.6467M35.4429 27.9519L35.7252 27.6467M35.7252 27.6467C35.7729 27.5942 35.799 27.5644 35.8107 27.5511M35.7252 27.6467L35.8107 27.5511M35.8107 27.5511C35.8174 27.5435 35.8193 27.5412 35.8179 27.5432M35.8107 27.5511L35.8179 27.5432M35.8179 27.5432C37.3331 25.5296 37.6249 23.3841 36.7911 21.5739L35.8179 27.5432Z" stroke="black" stroke-width="1.5"/>
</svg>
