<svg width="15" height="11" viewBox="0 0 15 11" fill="none" xmlns="http://www.w3.org/2000/svg">
<path d="M13.4941 0.0381298C13.1863 0.136817 13.1745 0.145789 9.25708 4.14115L5.40121 8.07071L3.65654 6.29134C2.03502 4.64356 1.8972 4.50898 1.71541 4.42226C1.24918 4.20096 0.753637 4.26974 0.384178 4.61066C0.0909556 4.87981 -0.0527232 5.31044 0.0176501 5.69921C0.0909556 6.09995 0.04404 6.04911 2.47778 8.52228C4.60657 10.6874 4.73852 10.816 4.91739 10.8968C5.1461 10.9984 5.45985 11.0284 5.67097 10.9715C6.0287 10.8728 5.87623 11.0194 10.4476 6.35713C15.1802 1.52443 14.9104 1.82049 14.9837 1.39284C15.0834 0.797726 14.7169 0.220552 14.1275 0.0381298C13.9633 -0.0127096 13.6525 -0.0127096 13.4941 0.0381298Z" fill="black"/>
</svg>
