<svg width="55" height="55" viewBox="0 0 55 55" fill="none" xmlns="http://www.w3.org/2000/svg">
<circle cx="27.5" cy="27.5" r="27.5" fill="#FBFBFB"/>
<path d="M21.6203 18.0295C20.4841 18.2135 19.5017 18.7195 18.6583 19.5527C16.7481 21.4439 16.4653 24.3164 17.9289 26.9488C18.4747 27.9302 18.7625 28.2573 23.0541 32.6837C27.5294 37.2993 27.2962 37.0846 27.708 36.9466C27.8271 36.9057 29.0228 35.7045 32.0195 32.6071C34.3018 30.2558 36.2765 28.1806 36.4154 27.9966C38.0626 25.809 38.4446 23.3708 37.4722 21.2599C37.1894 20.6465 36.8321 20.1456 36.3161 19.6293C35.6265 18.9444 34.8674 18.4997 33.9247 18.2339C33.4435 18.0959 32.2329 18.0397 31.6871 18.1266C30.3624 18.3362 28.9484 19.0824 27.8568 20.1456L27.5294 20.4676L27.0332 20.0127C26.3684 19.4095 25.7929 19.0109 25.0486 18.6377C24.1953 18.2135 23.4858 18.0295 22.5877 18.0039C22.2206 17.9937 21.784 18.0039 21.6203 18.0295Z" fill="#F46B4B"/>
</svg>
